<svg xmlns="http://www.w3.org/2000/svg" width="24" height="24" viewBox="0 0 24 24" fill="url(#g)"><defs><linearGradient id="g" x1="0" y1="0" x2="1" y2="1"><stop stop-color="#F58529"/><stop offset="0.5" stop-color="#DD2A7B"/><stop offset="1" stop-color="#8134AF"/></linearGradient></defs><path d="M12 2.2c3.2 0 3.6 0 4.9.1 1.2.1 1.9.3 2.3.5.6.2 1 .5 1.5 1 .5.5.8.9 1 1.5.2.4.4 1.1.5 2.3.1 1.3.1 1.7.1 4.9s0 3.6-.1 4.9c-.1 1.2-.3 1.9-.5 2.3-.2.6-.5 1-1 1.5-.5.5-.9.8-1.5 1-.4.2-1.1.4-2.3.5-1.3.1-1.7.1-4.9.1s-3.6 0-4.9-.1c-1.2-.1-1.9-.3-2.3-.5-.6-.2-1-.5-1.5-1-.5-.5-.8-.9-1-1.5-.2-.4-.4-1.1-.5-2.3C2.2 15.6 2.2 15.2 2.2 12s0-3.6.1-4.9c.1-1.2.3-1.9.5-2.3.2-.6.5-1 1-1.5.5-.5.9-.8 1.5-1 .4-.2 1.1-.4 2.3-.5C8.4 2.2 8.8 2.2 12 2.2zm0 2c-3.2 0-3.6 0-4.8.1-1 .1-1.6.2-2 .4-.5.2-.8.4-1.2.8-.4.4-.6.7-.8 1.2-.1.4-.3 1-.4 2-.1 1.2-.1 1.6-.1 4.8s0 3.6.1 4.8c.1 1 .2 1.6.4 2 .2.5.4.8.8 1.2.4.4.7.6 1.2.8.4.1 1 .3 2 .4 1.2.1 1.6.1 4.8.1s3.6 0 4.8-.1c1-.1 1.6-.2 2-.4.5-.2.8-.4 1.2-.8.4-.4.6-.7.8-1.2.1-.4.3-1 .4-2 .1-1.2.1-1.6.1-4.8s0-3.6-.1-4.8c-.1-1-.2-1.6-.4-2-.2-.5-.4-.8-.8-1.2-.4-.4-.7-.6-1.2-.8-.4-.1-1-.3-2-.4-1.2-.1-1.6-.1-4.8-.1zm0 3.3a6.5 6.5 0 1 1 0 13 6.5 6.5 0 0 1 0-13zm0 2a4.5 4.5 0 1 0 0 9 4.5 4.5 0 0 0 0-9zm5-2.5a1.3 1.3 0 1 1 0 2.6 1.3 1.3 0 0 1 0-2.6z"/></svg>
