<svg width="64" height="64" viewBox="0 0 256 256" xmlns="http://www.w3.org/2000/svg" role="img" aria-label="Micul meu erou favicon">
  <defs>
    <linearGradient id="bgGrad" x1="0" y1="0" x2="1" y2="1">
      <stop offset="0%" stop-color="#30d5c8"/>
      <stop offset="100%" stop-color="#b784f7"/>
    </linearGradient>
  </defs>

  <!-- fundal -->
  <circle cx="128" cy="128" r="124" fill="url(#bgGrad)" />

  <!-- carte -->
  <g transform="translate(40,56)">
    <path d="M8,12c0-6.6,5.4-12,12-12h84c6.6,0,12,5.4,12,12v104c-16-8-32-12-52-12s-36,4-52,12V12z"
          fill="#ffffff" stroke="#633c9e" stroke-width="5" />
    <path d="M104,0h84c6.6,0,12,5.4,12,12v104c-16-8-32-12-52-12s-36,4-52,12V12c0-6.6,5.4-12,12-12z"
          fill="#ffffff" stroke="#633c9e" stroke-width="5" />
    <path d="M112,12c-5,4-12,6-24,6s-19-2-24-6v90c5-4,12-6,24-6s19,2,24,6V12z"
          fill="#f5f2ff" stroke="#633c9e" stroke-width="3" />
  </g>
</svg>
